<?xml version="1.0" encoding="iso-8859-1"?>
<!-- Generator: Adobe Illustrator 19.0.0, SVG Export Plug-In . SVG Version: 6.00 Build 0)  -->
<svg version="1.1" id="Capa_1" xmlns="http://www.w3.org/2000/svg" xmlns:xlink="http://www.w3.org/1999/xlink" x="0px" y="0px"
	 viewBox="0 0 448.055 448.055" style="enable-background:new 0 0 448.055 448.055;" xml:space="preserve">
<g>
	<g>
		<path d="M369.319,112.641c-30.913-21.546-67.7-33.072-105.381-33.019c-37.756-0.005-74.588,11.676-105.44,33.44l-33.28-33.44
			l25.44-25.44c11.844-13.117,10.812-33.352-2.306-45.196c-12.214-11.028-30.8-10.995-42.974,0.076l-25.44,25.28l-25.44-25.28
			C41.074-2.434,20.873-0.871,9.378,12.553c-10.259,11.98-10.259,29.649,0,41.629l25.28,25.44l-25.28,25.44
			c-12.504,12.504-12.504,32.776,0,45.28s32.776,12.504,45.28,0l25.28-25.44l33.44,33.44
			c-58.056,83.296-37.595,197.885,45.701,255.941c83.296,58.056,197.885,37.595,255.941-45.701
			C473.076,285.286,452.615,170.697,369.319,112.641z M263.938,383.622c-66.274,0-120-53.726-120-120s53.726-120,120-120
			s120,53.726,120,120C383.85,329.86,330.175,383.534,263.938,383.622z"/>
	</g>
</g>
<g>
</g>
<g>
</g>
<g>
</g>
<g>
</g>
<g>
</g>
<g>
</g>
<g>
</g>
<g>
</g>
<g>
</g>
<g>
</g>
<g>
</g>
<g>
</g>
<g>
</g>
<g>
</g>
<g>
</g>
</svg>
