<?xml version="1.0" encoding="iso-8859-1"?>
<!-- Generator: Adobe Illustrator 19.0.0, SVG Export Plug-In . SVG Version: 6.00 Build 0)  -->
<svg version="1.1" id="Capa_1" xmlns="http://www.w3.org/2000/svg" xmlns:xlink="http://www.w3.org/1999/xlink" x="0px" y="0px"
	 viewBox="0 0 447.967 447.967" style="enable-background:new 0 0 447.967 447.967;" xml:space="preserve">
<g>
	<g>
		<path d="M369.231,113.156c-30.868-21.515-67.595-33.04-105.221-33.019c-37.756-0.005-74.588,11.676-105.44,33.44l-58.08-58.08
			l8.32,4c6.449,3.062,13.501,4.648,20.64,4.64h16c17.673,0.057,32.046-14.224,32.102-31.897c0.003-0.889-0.031-1.777-0.102-2.663
			c-1.965-16.928-16.4-29.636-33.44-29.44h-112c-17.673,0-32,14.327-32,32v112c-0.395,16.069,10.804,30.101,26.56,33.28
			c17.416,3.006,33.971-8.675,36.977-26.09c0.337-1.951,0.492-3.93,0.463-5.91v-16c0.005-7.38-1.693-14.662-4.96-21.28l-4.64-8
			l58.88,58.72c-58.056,83.296-37.595,197.885,45.701,255.941s197.885,37.595,255.941-45.701S452.527,171.212,369.231,113.156z
			 M264.01,384.137c-66.274,0-120-53.726-120-120s53.726-120,120-120s120,53.726,120,120
			C383.922,330.374,330.248,384.048,264.01,384.137z"/>
	</g>
</g>
<g>
</g>
<g>
</g>
<g>
</g>
<g>
</g>
<g>
</g>
<g>
</g>
<g>
</g>
<g>
</g>
<g>
</g>
<g>
</g>
<g>
</g>
<g>
</g>
<g>
</g>
<g>
</g>
<g>
</g>
</svg>
